<?xml version="1.0" encoding="UTF-8" standalone="no"?>
<!-- Created with Inkscape (http://www.inkscape.org/) -->

<svg
   xmlns:dc="http://purl.org/dc/elements/1.1/"
   xmlns:cc="http://creativecommons.org/ns#"
   xmlns:rdf="http://www.w3.org/1999/02/22-rdf-syntax-ns#"
   xmlns:svg="http://www.w3.org/2000/svg"
   xmlns="http://www.w3.org/2000/svg"
   xmlns:sodipodi="http://sodipodi.sourceforge.net/DTD/sodipodi-0.dtd"
   xmlns:inkscape="http://www.inkscape.org/namespaces/inkscape"
   width="180.62222mm"
   height="105.3373mm"
   viewBox="0 0 180.62222 105.3373"
   version="1.1"
   id="svg8"
   inkscape:version="0.92.4 (5da689c313, 2019-01-14)"
   sodipodi:docname="scroll-down.svg">
  <defs
     id="defs2" />
  <sodipodi:namedview
     id="base"
     pagecolor="#ffffff"
     bordercolor="#666666"
     borderopacity="1.0"
     inkscape:pageopacity="0.0"
     inkscape:pageshadow="2"
     inkscape:zoom="0.35"
     inkscape:cx="-11.523803"
     inkscape:cy="216.20547"
     inkscape:document-units="mm"
     inkscape:current-layer="layer1"
     showgrid="false"
     fit-margin-top="0"
     fit-margin-left="0"
     fit-margin-right="0"
     fit-margin-bottom="0"
     inkscape:window-width="1858"
     inkscape:window-height="1057"
     inkscape:window-x="54"
     inkscape:window-y="-8"
     inkscape:window-maximized="1" />
  <metadata
     id="metadata5">
    <rdf:RDF>
      <cc:Work
         rdf:about="">
        <dc:format>image/svg+xml</dc:format>
        <dc:type
           rdf:resource="http://purl.org/dc/dcmitype/StillImage" />
        <dc:title></dc:title>
      </cc:Work>
    </rdf:RDF>
  </metadata>
  <g
     inkscape:label="Layer 1"
     inkscape:groupmode="layer"
     id="layer1"
     transform="translate(-24.593649,-100.7004)">
    <g
       id="#000000ff"
       transform="matrix(0.35277779,0,0,0.35277779,24.593649,63.059393)"
       style="fill:#ffffff">
      <path
         id="path10"
         d="m 31.86,110.87 c 6.13,-5.91 16.75,-5.33 22.44,0.9 67.27,67.19 134.46,134.45 201.71,201.66 67.27,-67.23 134.52,-134.47 201.77,-201.71 3.85,-4.04 9.81,-5.94 15.27,-4.59 3.89,0.79 7.02,3.42 9.72,6.19 7.96,8.02 15.99,15.97 23.95,23.99 2.64,2.53 4.3,5.87 5.28,9.37 v 4.78 c -0.79,3.8 -2.65,7.33 -5.48,10.01 -78.34,78.34 -156.7,156.68 -235.03,235.03 -3.12,3.09 -6.16,6.62 -10.49,7.99 -5.7,1.95 -12.3,0.25 -16.48,-4.04 C 164.67,320.64 84.86,240.8 5.04,160.97 2.42,158.43 0.8,155.09 0,151.57 v -4.22 c 0.68,-4.07 2.78,-7.76 5.81,-10.54 8.73,-8.6 17.27,-17.4 26.05,-25.94 z"
         inkscape:connector-curvature="0"
         style="opacity:1;fill:#ffffff" />
    </g>
  </g>
</svg>
