<?xml version="1.0" encoding="UTF-8" ?>
<!DOCTYPE svg PUBLIC "-//W3C//DTD SVG 1.1//EN" "http://www.w3.org/Graphics/SVG/1.1/DTD/svg11.dtd">
<svg width="502pt" height="120pt" viewBox="0 0 502 120" version="1.1" xmlns="http://www.w3.org/2000/svg">
<g id="#222222ff">
<path fill="#222222" opacity="1.00" d=" M 142.41 13.62 C 145.10 12.31 148.72 13.08 150.45 15.57 C 151.63 17.11 151.44 19.15 151.54 20.97 C 151.51 40.61 151.55 60.25 151.52 79.89 C 151.42 82.79 151.47 86.10 149.35 88.35 C 146.69 91.06 141.78 90.27 139.77 87.17 C 138.88 85.59 138.72 83.74 138.74 81.97 C 138.77 61.30 138.75 40.63 138.75 19.96 C 138.56 17.35 139.88 14.58 142.41 13.62 Z" />
<path fill="#222222" opacity="1.00" d=" M 307.25 15.10 C 313.37 15.65 318.55 19.87 324.35 21.76 C 337.62 26.19 350.33 34.73 356.71 47.52 C 364.45 63.28 355.82 84.40 339.43 90.46 C 329.65 93.70 318.65 94.09 309.05 90.01 C 306.06 88.60 301.67 88.27 300.52 84.59 C 299.81 80.41 300.48 76.14 300.45 71.93 C 301.21 55.96 300.68 39.97 300.60 23.99 C 300.20 19.93 303.43 16.11 307.25 15.10 M 313.26 30.85 C 313.24 46.53 313.24 62.22 313.26 77.91 C 318.93 80.72 325.50 80.34 331.58 79.38 C 340.26 78.07 346.29 69.41 346.60 60.99 C 346.95 54.78 343.77 48.87 339.26 44.79 C 331.96 37.96 322.23 34.81 313.26 30.85 Z" />
<path fill="#222222" opacity="1.00" d=" M 114.31 18.45 C 118.54 16.72 124.66 20.12 123.87 25.09 C 123.46 31.26 114.28 32.96 110.87 28.18 C 107.71 24.88 110.32 19.54 114.31 18.45 Z" />
<path fill="#222222" opacity="1.00" d=" M 175.34 18.51 C 180.22 16.17 187.36 21.56 184.65 26.88 C 182.38 32.01 174.44 32.30 171.57 27.56 C 169.14 24.20 171.74 19.61 175.34 18.51 Z" />
<path fill="#222222" opacity="1.00" d=" M 64.26 26.31 C 66.31 23.72 68.24 20.89 71.05 19.07 C 74.81 18.60 77.58 22.14 78.15 25.52 C 80.89 39.78 84.05 53.96 87.40 68.09 C 88.48 73.29 91.35 77.90 92.41 83.12 C 91.61 85.44 90.34 87.85 87.82 88.62 C 85.18 89.94 82.56 87.85 81.17 85.73 C 77.65 80.39 75.59 74.22 74.08 68.04 C 66.39 69.17 58.55 69.23 50.96 71.02 C 48.50 76.40 45.99 81.82 42.76 86.77 C 39.48 91.11 31.28 88.52 31.43 83.00 C 32.27 75.88 38.53 70.35 37.90 62.96 C 39.05 61.65 40.74 61.08 42.25 60.32 C 49.19 48.74 56.28 37.21 64.26 26.31 M 57.91 57.98 C 62.41 57.68 66.92 57.35 71.42 56.96 C 70.27 51.70 69.35 46.39 68.16 41.15 C 64.67 46.71 61.34 52.38 57.91 57.98 Z" />
<path fill="#222222" opacity="1.00" d=" M 198.74 39.56 C 200.86 36.92 205.03 36.11 207.84 38.14 C 210.14 39.59 210.23 42.57 210.78 44.95 C 213.93 41.87 217.69 39.20 222.09 38.34 C 227.76 37.01 234.66 39.37 237.03 45.01 C 241.30 54.47 238.13 65.06 240.27 74.91 C 240.76 78.92 242.09 83.11 241.00 87.11 C 239.15 92.41 229.77 92.34 228.91 86.44 C 227.85 79.01 226.42 71.55 226.75 64.01 C 226.68 59.58 228.05 55.00 226.33 50.72 C 219.43 50.86 215.68 57.58 213.17 63.10 C 209.55 70.54 211.24 79.05 209.63 86.90 C 208.03 92.07 199.93 92.30 197.74 87.44 C 195.01 74.71 198.45 61.81 197.79 48.98 C 197.93 45.85 196.81 42.33 198.74 39.56 Z" />
<path fill="#222222" opacity="1.00" d=" M 112.47 38.65 C 115.90 36.77 120.78 39.08 121.39 42.98 C 121.75 47.08 121.32 51.22 121.05 55.32 C 119.91 65.16 121.08 75.07 120.68 84.93 C 120.08 90.90 110.81 91.71 108.74 86.25 C 107.91 81.89 108.50 77.37 108.13 72.94 C 107.24 64.27 108.87 55.62 108.76 46.94 C 108.61 43.83 109.19 39.99 112.47 38.65 Z" />
<path fill="#222222" opacity="1.00" d=" M 175.11 38.13 C 178.66 37.29 182.88 40.23 182.62 44.05 C 182.83 53.40 181.14 62.68 181.75 72.03 C 181.50 76.99 183.31 82.28 181.16 87.00 C 178.62 91.63 170.63 90.60 169.65 85.30 C 168.91 71.18 169.16 57.01 170.35 42.92 C 170.50 40.44 172.85 38.68 175.11 38.13 Z" />
<path fill="#222222" opacity="1.00" d=" M 384.01 39.99 C 391.16 36.91 399.49 37.63 406.62 40.40 C 411.35 42.22 414.95 47.23 414.05 52.40 C 413.30 57.07 409.22 60.19 405.28 62.26 C 397.61 66.17 389.61 69.37 381.85 73.07 C 386.88 77.12 393.73 77.63 399.88 76.63 C 403.90 75.98 407.05 73.07 410.96 72.11 C 413.41 71.48 416.46 73.23 416.49 75.94 C 417.22 79.87 414.57 83.41 411.38 85.36 C 404.15 89.86 395.07 91.04 386.83 89.09 C 380.13 87.66 373.61 83.60 370.72 77.20 C 367.80 70.57 368.47 62.99 370.48 56.21 C 372.67 49.37 377.26 42.91 384.01 39.99 M 389.83 49.55 C 384.90 51.35 382.49 56.46 380.97 61.13 C 388.20 58.02 395.52 55.01 402.19 50.80 C 398.36 49.06 393.91 48.27 389.83 49.55 Z" />
<path fill="#222222" opacity="1.00" d=" M 430.23 38.30 C 433.31 37.16 436.80 39.09 437.91 42.09 C 441.65 50.42 444.47 59.13 447.88 67.60 C 448.09 67.68 448.51 67.84 448.72 67.93 C 452.57 59.75 455.51 51.19 458.96 42.85 C 459.88 40.29 462.12 38.01 464.98 37.97 C 467.56 38.07 470.23 39.57 471.29 42.00 C 472.16 44.13 471.02 46.28 470.32 48.27 C 465.57 59.95 460.34 71.41 455.10 82.88 C 454.00 85.06 453.74 88.04 451.28 89.21 C 447.77 91.30 443.01 89.08 441.79 85.32 C 436.57 72.17 431.09 59.11 425.87 45.96 C 424.46 42.69 427.07 39.17 430.23 38.30 Z" />
</g>
</svg>
