<?xml version="1.0" encoding="UTF-8" ?>
<!DOCTYPE svg PUBLIC "-//W3C//DTD SVG 1.1//EN" "http://www.w3.org/Graphics/SVG/1.1/DTD/svg11.dtd">
<svg width="20pt" height="25pt" viewBox="0 0 20 25" version="1.1" xmlns="http://www.w3.org/2000/svg">
<g id="#c5c5c5ff">
<path fill="#c5c5c5" opacity="1.00" d=" M 9.90 6.39 C 9.80 3.69 11.79 1.29 14.42 0.80 C 14.98 3.45 12.71 6.46 9.90 6.39 Z" />
<path fill="#c5c5c5" opacity="1.00" d=" M 2.05 8.08 C 3.89 5.43 7.34 6.22 9.95 6.92 C 13.06 6.26 16.80 5.19 19.13 8.19 C 17.35 9.87 15.89 12.33 16.96 14.82 C 17.54 15.86 18.57 18.17 20.00 17.44 L 20.00 17.45 C 18.95 19.74 17.92 22.39 15.63 23.73 C 13.51 24.69 11.38 22.36 9.23 23.33 C 7.60 24.04 5.41 24.48 4.18 22.79 C 0.77 18.96 -1.24 12.57 2.05 8.08 Z" />
</g>
</svg>
