<?xml version="1.0" encoding="UTF-8" ?>
<!DOCTYPE svg PUBLIC "-//W3C//DTD SVG 1.1//EN" "http://www.w3.org/Graphics/SVG/1.1/DTD/svg11.dtd">
<svg width="223pt" height="57pt" viewBox="0 0 223 57" version="1.1" xmlns="http://www.w3.org/2000/svg">
<g id="#181818b1">
<path fill="#181818" opacity="0.69" d=" M 66.54 0.00 L 66.72 0.00 C 67.21 0.43 68.18 1.30 68.67 1.73 C 66.40 4.49 63.61 6.77 60.63 8.72 C 54.23 13.01 48.09 17.70 41.31 21.38 C 39.71 22.36 37.92 23.14 36.63 24.53 C 35.45 26.37 34.82 28.48 33.99 30.49 C 39.33 34.01 45.82 31.54 51.23 29.59 C 48.18 29.87 45.16 30.50 42.08 30.46 C 39.56 30.54 37.87 28.42 36.09 26.97 C 41.65 22.49 50.72 20.62 56.47 25.69 C 62.83 22.84 69.57 20.92 75.90 18.05 C 82.97 12.71 90.20 6.80 99.31 5.56 C 99.86 7.09 101.63 8.64 100.49 10.31 C 97.72 15.96 92.75 20.25 87.36 23.35 C 84.36 24.92 82.36 27.71 80.12 30.14 C 77.50 33.02 74.15 35.06 70.93 37.16 C 78.77 38.77 86.48 36.26 94.20 35.23 C 93.96 24.27 100.28 14.26 108.62 7.60 C 111.40 5.43 114.65 3.74 118.15 3.16 C 120.47 2.65 122.82 4.13 123.95 6.10 C 124.85 9.17 123.59 12.35 121.79 14.84 C 116.14 23.11 107.55 28.57 99.85 34.72 C 102.47 33.94 105.08 33.15 107.69 32.36 C 113.62 32.82 119.48 34.05 125.44 34.09 C 126.55 32.91 127.67 31.75 128.79 30.59 C 127.92 28.81 126.61 27.10 126.44 25.09 C 126.43 22.73 128.98 22.22 130.66 21.37 C 131.47 22.67 132.27 23.96 133.08 25.26 C 132.37 26.97 131.66 28.67 130.94 30.37 C 134.60 31.95 138.58 31.90 142.47 31.64 C 141.14 32.39 139.79 33.12 138.44 33.84 C 138.15 34.22 137.58 34.98 137.29 35.36 C 136.37 35.90 135.45 36.45 134.54 36.99 C 140.58 37.35 146.59 36.54 152.44 35.02 C 152.05 35.76 151.26 37.23 150.87 37.97 C 152.10 35.95 153.96 34.75 156.39 34.61 C 155.92 35.45 154.97 37.11 154.49 37.95 C 160.46 36.37 166.56 35.34 172.73 34.97 C 171.81 36.12 170.78 37.18 169.71 38.18 C 179.77 39.63 189.91 38.22 200.00 37.93 C 207.66 37.56 215.33 37.16 223.00 37.35 L 223.00 38.65 C 206.29 38.55 189.64 40.61 172.93 40.06 C 170.48 40.30 168.55 38.82 167.01 37.11 C 161.57 38.11 156.10 39.06 150.56 39.18 C 150.58 38.65 150.62 37.59 150.64 37.05 C 143.44 39.08 135.97 38.67 128.66 37.61 C 130.45 36.02 132.41 34.65 134.29 33.16 C 132.93 32.56 131.57 31.96 130.22 31.35 C 127.54 34.29 124.42 36.80 120.84 38.57 C 120.70 37.84 120.42 36.39 120.28 35.67 C 117.57 36.17 114.86 36.71 112.15 37.24 C 113.60 36.11 115.07 35.01 116.56 33.92 C 113.86 34.15 111.17 34.35 108.47 34.44 C 106.95 35.68 105.54 37.10 103.77 37.97 C 101.93 39.22 101.09 36.66 99.94 35.71 C 98.58 36.10 97.21 36.51 95.85 36.91 C 97.46 40.28 99.42 43.47 101.69 46.43 C 97.62 44.51 93.46 42.76 89.23 41.23 C 75.96 48.62 61.53 54.07 46.61 57.00 L 35.33 57.00 C 32.63 56.05 28.08 53.51 30.08 50.05 C 33.88 44.77 40.91 43.85 46.84 42.68 C 55.43 40.88 64.18 40.02 72.78 38.30 C 68.24 38.07 63.69 37.97 59.17 37.51 C 57.91 35.69 56.65 33.89 55.45 32.05 C 57.10 32.66 58.74 33.32 60.37 33.99 C 63.97 28.95 68.51 24.70 73.06 20.54 C 66.34 23.64 59.05 25.57 52.89 29.80 C 46.87 33.22 38.59 36.22 32.55 31.24 C 33.00 29.34 33.47 27.45 33.97 25.56 C 25.54 30.62 16.57 34.68 7.73 38.96 C 5.29 40.15 2.79 41.20 0.19 42.00 C 2.83 39.48 6.09 37.80 9.41 36.38 C 16.92 33.12 24.19 29.35 31.41 25.52 C 37.13 22.78 40.24 16.88 45.28 13.24 C 51.99 8.29 58.78 3.20 66.54 0.00 M 59.38 5.36 C 52.08 9.99 44.74 14.76 38.90 21.24 C 46.32 17.04 53.17 11.96 60.22 7.20 C 62.57 5.64 64.73 3.81 66.63 1.72 C 64.10 2.68 61.66 3.89 59.38 5.36 M 107.63 10.32 C 100.65 16.73 95.35 25.69 95.72 35.44 C 101.06 32.43 105.63 28.28 110.49 24.58 C 115.71 19.96 121.43 14.99 123.01 7.85 C 122.64 7.14 121.91 5.71 121.54 4.99 C 116.25 3.93 111.41 6.97 107.63 10.32 M 92.12 9.09 C 86.58 11.56 81.78 15.35 77.06 19.09 C 77.57 19.56 78.59 20.50 79.10 20.97 C 74.73 26.97 68.52 31.15 62.83 35.76 C 65.32 36.01 68.05 36.94 70.40 35.59 C 75.41 33.11 79.55 29.16 82.86 24.72 C 82.48 21.31 84.39 18.52 87.34 16.99 C 87.95 19.14 86.83 21.08 86.07 23.00 C 91.16 18.89 97.95 14.84 99.18 7.91 C 96.77 7.13 94.32 8.18 92.12 9.09 M 61.10 35.21 C 65.90 31.71 70.54 27.95 74.73 23.72 C 75.95 22.58 76.75 21.10 77.40 19.57 C 70.84 23.38 65.98 29.54 61.10 35.21 M 128.97 23.07 C 127.28 25.20 128.54 27.56 129.66 29.59 C 130.38 27.91 130.87 26.16 131.27 24.39 C 130.70 24.06 129.54 23.40 128.97 23.07 M 39.11 26.46 C 38.95 27.65 40.10 28.36 40.66 29.27 C 45.48 29.10 50.24 28.16 54.76 26.45 C 50.45 22.49 43.84 24.22 39.11 26.46 M 105.04 35.03 C 105.63 34.44 105.63 34.44 105.04 35.03 M 102.50 37.05 C 103.61 37.72 105.30 36.22 105.04 35.03 C 103.92 34.45 102.15 35.81 102.50 37.05 M 83.30 38.22 C 85.15 38.80 87.00 39.38 88.85 39.97 C 90.60 38.88 92.35 37.78 94.10 36.68 C 90.53 37.41 86.93 37.99 83.30 38.22 M 90.90 40.39 C 92.96 41.10 95.02 41.83 97.07 42.57 C 96.29 40.97 95.53 39.36 94.77 37.76 C 93.48 38.64 92.18 39.51 90.90 40.39 M 75.15 39.62 C 63.51 41.39 51.86 43.09 40.37 45.62 C 36.89 46.52 33.28 48.01 31.06 50.97 C 30.58 53.62 33.91 55.13 36.11 55.50 C 45.33 56.73 54.54 54.16 63.15 51.09 C 71.45 48.40 79.48 44.95 87.20 40.88 C 83.29 39.82 79.20 38.70 75.15 39.62 Z" />
<path fill="#181818" opacity="0.69" d=" M 75.74 36.73 C 77.69 34.55 80.19 32.91 83.07 32.27 C 81.29 34.66 78.74 36.35 75.74 36.73 Z" />
<path fill="#181818" opacity="0.69" d=" M 49.35 33.09 C 52.51 32.56 47.88 38.18 46.80 36.05 C 47.13 34.74 48.27 33.80 49.35 33.09 Z" />
</g>
</svg>
